<svg xmlns="http://www.w3.org/2000/svg" viewBox="-45 -75 220 195"
     fill="none" shape-rendering="crispEdges"
     role="img" aria-labelledby="title desc"
     width="220" height="195">
  <title id="title">Claude Mascot Jumping Animation</title>
  <desc id="desc">Animated pixel-art Claude mascot jumping and raising hands in a celebratory loop, alternating between left and right directions with colorful sparkle effects.</desc>
  <defs>
    <style>
    /* Frame toggle animation - sprite-sheet approach */
    .f1, .f2, .f3, .f4, .f5, .f6, .f7, .f8 { opacity: 0; }

    .f1 { animation: a1 1s infinite step-end; }
    .f2 { animation: a2 1s infinite step-end; }
    .f3 { animation: a3 1s infinite step-end; }
    .f4 { animation: a4 1s infinite step-end; }
    .f5 { animation: a5 1s infinite step-end; }
    .f6 { animation: a6 1s infinite step-end; }
    .f7 { animation: a7 1s infinite step-end; }
    .f8 { animation: a8 1s infinite step-end; }

    @keyframes a1 { 0%     { opacity: 1; } 12.5%  { opacity: 0; } }
    @keyframes a2 { 12.5%  { opacity: 1; } 25%    { opacity: 0; } }
    @keyframes a3 { 25%    { opacity: 1; } 37.5%  { opacity: 0; } }
    @keyframes a4 { 37.5%  { opacity: 1; } 50%    { opacity: 0; } }
    @keyframes a5 { 50%    { opacity: 1; } 62.5%  { opacity: 0; } }
    @keyframes a6 { 62.5%  { opacity: 1; } 75%    { opacity: 0; } }
    @keyframes a7 { 75%    { opacity: 1; } 87.5%  { opacity: 0; } }
    @keyframes a8 { 87.5%  { opacity: 1; } 100%   { opacity: 0; } }

    /* Accessibility: respect reduced motion preference */
    @media (prefers-reduced-motion: reduce) {
      .f1, .f2, .f3, .f4, .f5, .f6, .f7, .f8 { animation: none !important; }
      .f1 { opacity: 1; }
    }
    </style>
  </defs>

  <!-- Body animation frames -->
    <g id="l001" class="f1" transform="translate(0, 36)" fill="none">
      <rect id="f1-leg4" x="96" y="65" width="11" height="12" fill="#DD775B" />
      <rect id="f1-leg3" x="75" y="65" width="11" height="12" fill="#DD775B" />
      <rect id="f1-leg2" x="43" y="65" width="11" height="12" fill="#DD775B" />
      <rect id="f1-leg1" x="22" y="65" width="11" height="12" fill="#DD775B" />
      <g id="f1-body" fill="none"><rect id="f1-bdy" x="22" width="85" height="65" fill="#DD775B" /><rect id="f1-right-hand" x="107" y="36" width="22" height="23" fill="#DD775B" /><rect id="f1-left-hand" y="36" width="22" height="23" fill="#DD775B" /><rect id="f1-left-eyes" x="86" y="25" width="11" height="11" fill="black" /><rect id="f1-right-eyes" x="32" y="25" width="11" height="11" fill="black" /></g>
    </g>
    <g id="l002" class="f2" transform="translate(2, 3)" fill="none">
      <rect id="f2-leg4" x="96" y="80" width="11" height="30" fill="#DD775B" />
      <rect id="f2-leg3" x="75" y="80" width="11" height="30" fill="#DD775B" />
      <rect id="f2-leg2" x="43" y="85" width="11" height="25" fill="#DD775B" />
      <rect id="f2-leg1" x="22" y="85" width="11" height="25" fill="#DD775B" />
      <g id="f2-body" fill="none"><rect id="f2-bdy" x="22" y="20" width="42" height="65" fill="#DD775B" /><rect id="f2-bdy_2" x="64" y="9" width="43" height="71" fill="#DD775B" /><rect id="f2-Rectangle 192" x="43" y="14" width="32" height="21" fill="#DD775B" /><rect id="f2-right-hand" x="103" width="22" height="31" fill="#DD775B" /><rect id="f2-left-hand" y="42" width="22" height="23" fill="#DD775B" /><rect id="f2-left-eyes" x="86" y="20" width="11" height="11" fill="black" /><rect id="f2-right-eyes" x="32" y="31" width="11" height="11" fill="black" /></g>
    </g>
    <g id="l003" class="f3" transform="translate(2, -8)" fill="none">
      <rect id="f3-leg4" x="96" y="83" width="11" height="27" fill="#DD775B" />
      <rect id="f3-leg3" x="75" y="83" width="11" height="27" fill="#DD775B" />
      <rect id="f3-leg2" x="43" y="88" width="11" height="25" fill="#DD775B" />
      <rect id="f3-leg1" x="22" y="88" width="11" height="25" fill="#DD775B" />
      <g id="f3-body" fill="none"><rect id="f3-bdy" x="22" y="23" width="42" height="65" fill="#DD775B" /><rect id="f3-bdy_2" x="64" y="12" width="43" height="71" fill="#DD775B" /><rect id="f3-Rectangle 192" x="43" y="17" width="32" height="21" fill="#DD775B" /><g id="f3-right-hand" fill="none"><rect id="f3-udf" x="103" y="8" width="8" height="26" fill="#DD775B" /><rect id="f3-udf_2" x="108" width="8" height="30" fill="#DD775B" /><rect id="f3-udf_3" x="112" width="8" height="27" fill="#DD775B" /><rect id="f3-udf_4" x="117" width="8" height="24" fill="#DD775B" /></g><rect id="f3-left-hand" y="59" width="22" height="23" fill="#DD775B" /><rect id="f3-left-eyes" x="86" y="24" width="11" height="11" fill="black" /><rect id="f3-right-eyes" x="32" y="34" width="11" height="11" fill="black" /></g>
    </g>
    <g id="l004" class="f4" transform="translate(2, 3)" fill="none">
      <rect id="f4-leg4" x="96" y="80" width="11" height="26" fill="#DD775B" />
      <rect id="f4-leg3" x="75" y="80" width="11" height="26" fill="#DD775B" />
      <rect id="f4-leg2" x="43" y="85" width="11" height="25" fill="#DD775B" />
      <rect id="f4-leg1" x="22" y="85" width="11" height="25" fill="#DD775B" />
      <g id="f4-body" fill="none"><rect id="f4-bdy" x="22" y="20" width="42" height="65" fill="#DD775B" /><rect id="f4-bdy_2" x="64" y="9" width="43" height="71" fill="#DD775B" /><rect id="f4-Rectangle 192" x="43" y="14" width="32" height="21" fill="#DD775B" /><rect id="f4-right-hand" x="103" width="22" height="31" fill="#DD775B" /><rect id="f4-left-hand" y="42" width="22" height="23" fill="#DD775B" /><rect id="f4-left-eyes" x="86" y="20" width="11" height="11" fill="black" /><rect id="f4-right-eyes" x="32" y="31" width="11" height="11" fill="black" /></g>
    </g>
    <g id="l005" class="f5" transform="translate(0, 36)" fill="none">
      <rect id="f5-leg4" x="96" y="65" width="11" height="12" fill="#DD775B" />
      <rect id="f5-leg3" x="75" y="65" width="11" height="12" fill="#DD775B" />
      <rect id="f5-leg2" x="43" y="65" width="11" height="12" fill="#DD775B" />
      <rect id="f5-leg1" x="22" y="65" width="11" height="12" fill="#DD775B" />
      <g id="f5-body" fill="none"><rect id="f5-bdy" x="22" width="85" height="65" fill="#DD775B" /><rect id="f5-right-hand" x="107" y="36" width="22" height="23" fill="#DD775B" /><rect id="f5-left-hand" y="36" width="22" height="23" fill="#DD775B" /><rect id="f5-left-eyes" x="86" y="25" width="11" height="11" fill="black" /><rect id="f5-right-eyes" x="32" y="25" width="11" height="11" fill="black" /></g>
    </g>
    <g id="l006" class="f6" transform="translate(2, 3)" fill="none">
      <rect id="f6-leg4" width="11" height="30" transform="matrix(-1 0 0 1 29 80)" fill="#DD775B" />
      <rect id="f6-leg3" width="11" height="30" transform="matrix(-1 0 0 1 50 80)" fill="#DD775B" />
      <rect id="f6-leg2" width="11" height="25" transform="matrix(-1 0 0 1 82 85)" fill="#DD775B" />
      <rect id="f6-leg1" width="11" height="25" transform="matrix(-1 0 0 1 103 85)" fill="#DD775B" />
      <g id="f6-body" fill="none"><rect id="f6-bdy" width="42" height="65" transform="matrix(-1 0 0 1 103 20)" fill="#DD775B" /><rect id="f6-bdy_2" width="43" height="71" transform="matrix(-1 0 0 1 61 9)" fill="#DD775B" /><rect id="f6-Rectangle 192" width="32" height="21" transform="matrix(-1 0 0 1 82 14)" fill="#DD775B" /><rect id="f6-right-hand" width="22" height="31" transform="matrix(-1 0 0 1 22 0)" fill="#DD775B" /><rect id="f6-left-hand" width="22" height="23" transform="matrix(-1 0 0 1 125 42)" fill="#DD775B" /><rect id="f6-left-eyes" width="11" height="11" transform="matrix(-1 0 0 1 39 20)" fill="black" /><rect id="f6-right-eyes" width="11" height="11" transform="matrix(-1 0 0 1 93 31)" fill="black" /></g>
    </g>
    <g id="l007" class="f7" transform="translate(2, -8)" fill="none">
      <rect id="f7-leg4" width="11" height="27" transform="matrix(-1 0 0 1 29 83)" fill="#DD775B" />
      <rect id="f7-leg3" width="11" height="27" transform="matrix(-1 0 0 1 50 83)" fill="#DD775B" />
      <rect id="f7-leg2" width="11" height="25" transform="matrix(-1 0 0 1 82 88)" fill="#DD775B" />
      <rect id="f7-leg1" width="11" height="25" transform="matrix(-1 0 0 1 103 88)" fill="#DD775B" />
      <g id="f7-body" fill="none"><rect id="f7-bdy" width="42" height="65" transform="matrix(-1 0 0 1 103 23)" fill="#DD775B" /><rect id="f7-bdy_2" width="43" height="71" transform="matrix(-1 0 0 1 61 12)" fill="#DD775B" /><rect id="f7-Rectangle 192" width="32" height="21" transform="matrix(-1 0 0 1 82 17)" fill="#DD775B" /><g id="f7-right-hand" fill="none"><rect id="f7-udf" width="8" height="26" transform="matrix(-1 0 0 1 22 8)" fill="#DD775B" /><rect id="f7-udf_2" width="8" height="30" transform="matrix(-1 0 0 1 17 0)" fill="#DD775B" /><rect id="f7-udf_3" width="8" height="27" transform="matrix(-1 0 0 1 13 0)" fill="#DD775B" /><rect id="f7-udf_4" width="8" height="24" transform="matrix(-1 0 0 1 8 0)" fill="#DD775B" /></g><rect id="f7-left-hand" width="22" height="23" transform="matrix(-1 0 0 1 125 59)" fill="#DD775B" /><rect id="f7-left-eyes" width="11" height="11" transform="matrix(-1 0 0 1 39 24)" fill="black" /><rect id="f7-right-eyes" width="11" height="11" transform="matrix(-1 0 0 1 93 34)" fill="black" /></g>
    </g>
    <g id="l008" class="f8" transform="translate(2, 3)" fill="none">
      <rect id="f8-leg4" width="11" height="26" transform="matrix(-1 0 0 1 29 80)" fill="#DD775B" />
      <rect id="f8-leg3" width="11" height="26" transform="matrix(-1 0 0 1 50 80)" fill="#DD775B" />
      <rect id="f8-leg2" width="11" height="25" transform="matrix(-1 0 0 1 82 85)" fill="#DD775B" />
      <rect id="f8-leg1" width="11" height="25" transform="matrix(-1 0 0 1 103 85)" fill="#DD775B" />
      <g id="f8-body" fill="none"><rect id="f8-bdy" width="42" height="65" transform="matrix(-1 0 0 1 103 20)" fill="#DD775B" /><rect id="f8-bdy_2" width="43" height="71" transform="matrix(-1 0 0 1 61 9)" fill="#DD775B" /><rect id="f8-Rectangle 192" width="32" height="21" transform="matrix(-1 0 0 1 82 14)" fill="#DD775B" /><rect id="f8-right-hand" width="22" height="31" transform="matrix(-1 0 0 1 22 0)" fill="#DD775B" /><rect id="f8-left-hand" width="22" height="23" transform="matrix(-1 0 0 1 125 42)" fill="#DD775B" /><rect id="f8-left-eyes" width="11" height="11" transform="matrix(-1 0 0 1 39 20)" fill="black" /><rect id="f8-right-eyes" width="11" height="11" transform="matrix(-1 0 0 1 93 31)" fill="black" /></g>
    </g>

  <!-- Right-side sparkle effects -->
  <g transform="translate(90, -65)" fill="none">
      <g id="s8-r1" class="f1" fill="none">
        <rect id="rs1-Rectangle 186" width="5" height="5" transform="matrix(-1 0 0 1 5 0)" fill="#C87392" />
      </g>
      <g id="s1-r2" class="f2" fill="none">
        <rect id="rs2-Rectangle 165" x="34" y="38" width="5" height="5" fill="#7CA4D0" />
        <rect id="rs2-Rectangle 167" x="29" y="24" width="5" height="5" fill="#DD8361" />
        <rect id="rs2-Rectangle 171" x="29" y="5" width="5" height="5" fill="#C87392" />
        <rect id="rs2-Rectangle 169" width="5" height="5" transform="matrix(-1 0 0 1 15 34)" fill="#7CA4D0" />
        <rect id="rs2-Rectangle 166" x="39" y="33" width="5" height="5" fill="#7CA4D0" />
        <rect id="rs2-Rectangle 168" x="34" y="19" width="5" height="5" fill="#DD8361" />
        <rect id="rs2-Rectangle 172" x="34" width="5" height="5" fill="#C87392" />
        <rect id="rs2-Rectangle 170" width="5" height="5" transform="matrix(-1 0 0 1 10 29)" fill="#7CA4D0" />
        <rect id="rs2-Rectangle 173" width="5" height="10" transform="matrix(-1 0 0 1 20 14)" fill="#CB708F" />
        <rect id="rs2-Rectangle 175" x="10" y="5" width="5" height="10" transform="rotate(-90 10 5)" fill="#DD8361" />
        <rect id="rs2-Rectangle 174" width="5" height="10" transform="matrix(-1 0 0 1 5 14)" fill="#7CA4D0" />
      </g>
      <g id="s2-r3" class="f3" fill="none">
        <rect id="rs3-Rectangle 165" width="5" height="5" transform="matrix(-1 0 0 1 63 45)" fill="#7CA4D0" />
        <rect id="rs3-Rectangle 176" width="5" height="5" transform="matrix(-1 0 0 1 10 17)" fill="#7CA4D0" />
        <rect id="rs3-Rectangle 167" x="39" y="24" width="10" height="5" fill="#DD8361" />
        <rect id="rs3-Rectangle 178" width="5" height="5" transform="matrix(-1 0 0 1 30 15)" fill="#C87392" />
        <rect id="rs3-Rectangle 169" width="10" height="5" transform="matrix(-1 0 0 1 25 34)" fill="#7CA4D0" />
        <rect id="rs3-Rectangle 166" width="5" height="5" transform="matrix(-1 0 0 1 58 40)" fill="#7CA4D0" />
        <rect id="rs3-Rectangle 177" width="5" height="5" transform="matrix(-1 0 0 1 5 12)" fill="#7CA4D0" />
        <rect id="rs3-Rectangle 172" x="48" width="10" height="5" fill="#C87392" />
        <rect id="rs3-Rectangle 179" width="5" height="5" transform="matrix(-1 0 0 1 25 10)" fill="#C87392" />
        <rect id="rs3-Rectangle 175" x="20" y="5" width="5" height="10" transform="rotate(-90 20 5)" fill="#DD8361" />
      </g>
      <g id="s3-r4" class="f4" fill="none">
        <rect id="rs4-Rectangle 165" width="5" height="10" transform="matrix(-1 0 0 1 66 48)" fill="#7CA4D0" />
        <rect id="rs4-Rectangle 176" width="10" height="5" transform="matrix(-1 0 0 1 10 25)" fill="#7CA4D0" />
        <rect id="rs4-Rectangle 182" x="13" y="43" width="5" height="5" fill="#7CA4D0" />
        <rect id="rs4-Rectangle 178" width="10" height="5" transform="matrix(-1 0 0 1 33 20)" fill="#C87392" />
        <rect id="rs4-Rectangle 180" width="5" height="5" transform="matrix(-1 0 0 1 52 35)" fill="#DD8361" />
        <rect id="rs4-Rectangle 186" width="5" height="5" transform="matrix(-1 0 0 1 66 14)" fill="#C87392" />
        <rect id="rs4-Rectangle 184" x="23" y="5" width="5" height="5" fill="#DD8361" />
        <rect id="rs4-Rectangle 183" x="18" y="38" width="5" height="5" fill="#7CA4D0" />
        <rect id="rs4-Rectangle 181" width="5" height="5" transform="matrix(-1 0 0 1 47 30)" fill="#DD8361" />
        <rect id="rs4-Rectangle 187" width="5" height="5" transform="matrix(-1 0 0 1 61 9)" fill="#C87392" />
        <rect id="rs4-Rectangle 185" x="28" width="5" height="5" fill="#DD8361" />
      </g>
      <g id="s4-r5" class="f5" fill="none">
        <rect id="rs5-Rectangle 165" width="5" height="5" transform="matrix(-1 0 0 1 81 43)" fill="#7CA4D0" />
        <rect id="rs5-Rectangle 188" width="5" height="5" transform="matrix(-1 0 0 1 76 48)" fill="#7CA4D0" />
        <rect id="rs5-Rectangle 176" width="5" height="5" transform="matrix(-1 0 0 1 5 25)" fill="#7CA4D0" />
        <rect id="rs5-Rectangle 182" x="8" y="38" width="5" height="10" fill="#7CA4D0" />
        <rect id="rs5-Rectangle 186" width="5" height="10" transform="matrix(-1 0 0 1 81 4)" fill="#C87392" />
        <rect id="rs5-Rectangle 189" x="18" y="20" width="5" height="5" fill="#C87392" />
        <rect id="rs5-Rectangle 181" width="10" height="5" transform="matrix(-1 0 0 1 62 25)" fill="#DD8361" />
        <rect id="rs5-Rectangle 185" x="23" width="5" height="10" fill="#DD8361" />
        <rect id="rs5-Rectangle 190" x="23" y="15" width="5" height="5" fill="#C87392" />
      </g>
      <g id="s5-r6" class="f6" fill="none">
        <rect id="rs6-Rectangle 165" width="5" height="5" transform="matrix(-1 0 0 1 81 45)" fill="#7CA4D0" />
        <rect id="rs6-Rectangle 188" width="5" height="5" transform="matrix(-1 0 0 1 76 50)" fill="#7CA4D0" />
        <rect id="rs6-Rectangle 176" width="5" height="5" transform="matrix(-1 0 0 1 5 24)" fill="#7CA4D0" />
        <rect id="rs6-Rectangle 182" x="6" y="38" width="5" height="5" fill="#7CA4D0" />
        <rect id="rs6-Rectangle 186" width="5" height="5" transform="matrix(-1 0 0 1 81 11)" fill="#C87392" />
        <rect id="rs6-Rectangle 189" x="21" y="20" width="5" height="5" fill="#C87392" />
        <rect id="rs6-Rectangle 181" width="5" height="5" transform="matrix(-1 0 0 1 62 27)" fill="#DD8361" />
        <rect id="rs6-Rectangle 185" x="23" width="5" height="5" fill="#DD8361" />
        <rect id="rs6-Rectangle 190" x="28" y="5" width="5" height="5" fill="#DD8361" />
      </g>
      <g id="s6-r7" class="f7" fill="none">
        <rect id="rs7-Rectangle 188" width="5" height="5" transform="matrix(-1 0 0 1 70 50)" fill="#7CA4D0" />
        <rect id="rs7-Rectangle 182" y="38" width="5" height="5" fill="#7CA4D0" />
        <rect id="rs7-Rectangle 186" width="5" height="5" transform="matrix(-1 0 0 1 75 11)" fill="#C87392" />
        <rect id="rs7-Rectangle 185" x="17" width="5" height="5" fill="#DD8361" />
      </g>
      <g id="s7-r8" class="f8" fill="none">
        <rect id="rs8-Rectangle 186" width="5" height="5" transform="matrix(-1 0 0 1 58 11)" fill="#C87392" />
        <rect id="rs8-Rectangle 185" width="5" height="5" fill="#DD8361" />
      </g>
  </g>

  <!-- Left-side sparkle effects (mirrored) -->
  <g transform="translate(40, -70) scale(-1, 1)" fill="none">
      <g id="s3-flip-l1" class="f1" fill="none">
        <rect width="5" height="10" transform="matrix(-1 0 0 1 66 48)" fill="#7CA4D0" />
        <rect width="10" height="5" transform="matrix(-1 0 0 1 10 25)" fill="#7CA4D0" />
        <rect x="13" y="43" width="5" height="5" fill="#7CA4D0" />
        <rect width="10" height="5" transform="matrix(-1 0 0 1 33 20)" fill="#C87392" />
        <rect width="5" height="5" transform="matrix(-1 0 0 1 52 35)" fill="#DD8361" />
        <rect width="5" height="5" transform="matrix(-1 0 0 1 66 14)" fill="#C87392" />
        <rect x="23" y="5" width="5" height="5" fill="#DD8361" />
        <rect x="18" y="38" width="5" height="5" fill="#7CA4D0" />
        <rect width="5" height="5" transform="matrix(-1 0 0 1 47 30)" fill="#DD8361" />
        <rect width="5" height="5" transform="matrix(-1 0 0 1 61 9)" fill="#C87392" />
        <rect x="28" width="5" height="5" fill="#DD8361" />
      </g>
      <g id="s4-flip-l2" class="f2" fill="none">
        <rect width="5" height="5" transform="matrix(-1 0 0 1 81 43)" fill="#7CA4D0" />
        <rect width="5" height="5" transform="matrix(-1 0 0 1 76 48)" fill="#7CA4D0" />
        <rect width="5" height="5" transform="matrix(-1 0 0 1 5 25)" fill="#7CA4D0" />
        <rect x="8" y="38" width="5" height="10" fill="#7CA4D0" />
        <rect width="5" height="10" transform="matrix(-1 0 0 1 81 4)" fill="#C87392" />
        <rect x="18" y="20" width="5" height="5" fill="#C87392" />
        <rect width="10" height="5" transform="matrix(-1 0 0 1 62 25)" fill="#DD8361" />
        <rect x="23" width="5" height="10" fill="#DD8361" />
        <rect x="23" y="15" width="5" height="5" fill="#C87392" />
      </g>
      <g id="s5-flip-l3" class="f3" fill="none">
        <rect width="5" height="5" transform="matrix(-1 0 0 1 81 45)" fill="#7CA4D0" />
        <rect width="5" height="5" transform="matrix(-1 0 0 1 76 50)" fill="#7CA4D0" />
        <rect width="5" height="5" transform="matrix(-1 0 0 1 5 24)" fill="#7CA4D0" />
        <rect x="6" y="38" width="5" height="5" fill="#7CA4D0" />
        <rect width="5" height="5" transform="matrix(-1 0 0 1 81 11)" fill="#C87392" />
        <rect x="21" y="20" width="5" height="5" fill="#C87392" />
        <rect width="5" height="5" transform="matrix(-1 0 0 1 62 27)" fill="#DD8361" />
        <rect x="23" width="5" height="5" fill="#DD8361" />
        <rect x="28" y="5" width="5" height="5" fill="#DD8361" />
      </g>
      <g id="s6-flip-l4" class="f4" fill="none">
        <rect width="5" height="5" transform="matrix(-1 0 0 1 70 50)" fill="#7CA4D0" />
        <rect y="38" width="5" height="5" fill="#7CA4D0" />
        <rect width="5" height="5" transform="matrix(-1 0 0 1 75 11)" fill="#C87392" />
        <rect x="17" width="5" height="5" fill="#DD8361" />
      </g>
      <g id="s7-flip-l5" class="f5" fill="none">
        <rect width="5" height="5" transform="matrix(-1 0 0 1 58 11)" fill="#C87392" />
        <rect width="5" height="5" fill="#DD8361" />
      </g>
      <g id="s8-flip-l6" class="f6" fill="none">
        <rect width="5" height="5" transform="matrix(-1 0 0 1 5 0)" fill="#C87392" />
      </g>
      <g id="s1-flip-l7" class="f7" fill="none">
        <rect x="34" y="38" width="5" height="5" fill="#7CA4D0" />
        <rect x="29" y="24" width="5" height="5" fill="#DD8361" />
        <rect x="29" y="5" width="5" height="5" fill="#C87392" />
        <rect width="5" height="5" transform="matrix(-1 0 0 1 15 34)" fill="#7CA4D0" />
        <rect x="39" y="33" width="5" height="5" fill="#7CA4D0" />
        <rect x="34" y="19" width="5" height="5" fill="#DD8361" />
        <rect x="34" width="5" height="5" fill="#C87392" />
        <rect width="5" height="5" transform="matrix(-1 0 0 1 10 29)" fill="#7CA4D0" />
        <rect width="5" height="10" transform="matrix(-1 0 0 1 20 14)" fill="#CB708F" />
        <rect x="10" y="5" width="5" height="10" transform="rotate(-90 10 5)" fill="#DD8361" />
        <rect width="5" height="10" transform="matrix(-1 0 0 1 5 14)" fill="#7CA4D0" />
      </g>
      <g id="s2-flip-l8" class="f8" fill="none">
        <rect width="5" height="5" transform="matrix(-1 0 0 1 63 45)" fill="#7CA4D0" />
        <rect width="5" height="5" transform="matrix(-1 0 0 1 10 17)" fill="#7CA4D0" />
        <rect x="39" y="24" width="10" height="5" fill="#DD8361" />
        <rect width="5" height="5" transform="matrix(-1 0 0 1 30 15)" fill="#C87392" />
        <rect width="10" height="5" transform="matrix(-1 0 0 1 25 34)" fill="#7CA4D0" />
        <rect width="5" height="5" transform="matrix(-1 0 0 1 58 40)" fill="#7CA4D0" />
        <rect width="5" height="5" transform="matrix(-1 0 0 1 5 12)" fill="#7CA4D0" />
        <rect x="48" width="10" height="5" fill="#C87392" />
        <rect width="5" height="5" transform="matrix(-1 0 0 1 25 10)" fill="#C87392" />
        <rect x="20" y="5" width="5" height="10" transform="rotate(-90 20 5)" fill="#DD8361" />
      </g>
  </g>
</svg>